<?xml version="1.0" encoding="UTF-8" standalone="no"?>
<svg
   xmlns:dc="http://purl.org/dc/elements/1.1/"
   xmlns:cc="http://creativecommons.org/ns#"
   xmlns:rdf="http://www.w3.org/1999/02/22-rdf-syntax-ns#"
   xmlns:svg="http://www.w3.org/2000/svg"
   xmlns="http://www.w3.org/2000/svg"
   xmlns:sodipodi="http://sodipodi.sourceforge.net/DTD/sodipodi-0.dtd"
   xmlns:inkscape="http://www.inkscape.org/namespaces/inkscape"
   width="35.905727mm"
   height="5.5999999mm"
   viewBox="0 0 35.905727 5.5999998"
   version="1.1"
   id="svg8"
   sodipodi:docname="Game Boy entertainment system.svg"
   inkscape:version="1.0.1 (3bc2e813f5, 2020-09-07)">
  <sodipodi:namedview
     pagecolor="#ffffff"
     bordercolor="#666666"
     borderopacity="1"
     objecttolerance="10"
     gridtolerance="10"
     guidetolerance="10"
     inkscape:pageopacity="0"
     inkscape:pageshadow="2"
     inkscape:window-width="1920"
     inkscape:window-height="1001"
     id="namedview41"
     showgrid="false"
     inkscape:zoom="5.9489547"
     inkscape:cx="103.25985"
     inkscape:cy="48.460289"
     inkscape:window-x="-9"
     inkscape:window-y="-9"
     inkscape:window-maximized="1"
     inkscape:current-layer="layer1"
     inkscape:document-rotation="0"
     inkscape:document-units="mm" />
  <defs
     id="defs2" />
  <metadata
     id="metadata5">
    <rdf:RDF>
      <cc:Work
         rdf:about="">
        <dc:format>image/svg+xml</dc:format>
        <dc:type
           rdf:resource="http://purl.org/dc/dcmitype/StillImage" />
        <dc:title></dc:title>
      </cc:Work>
    </rdf:RDF>
  </metadata>
  <g
     inkscape:groupmode="layer"
     id="layer1"
     inkscape:label="Layer 1"
     transform="translate(-2.8788e-6,-8.0288902)">
    <g
       id="g937">
      <path
         fill="#393c9f"
         d="M 3.3414878,9.593123 3.5963274,9.0243955 3.7082082,9.593123 H 3.3414878 M 6.9480865,8.1060405 6.2566045,9.7143272 5.9504862,8.1060405 H 5.3553424 L 4.5084668,10.475738 4.1122223,8.1060405 H 3.3694579 L 2.2444342,10.660652 2.4122554,9.593123 H 1.2950012 l -0.088572,0.550081 h 0.4692779 l -0.054387,0.293687 C 1.3540494,10.547218 0.90031054,10.505262 0.70607302,10.157189 0.58331529,9.9365349 0.46832668,9.4455025 0.98577506,8.9933175 1.4084359,8.6250432 2.138769,8.5582255 2.5598759,8.7509091 c 0,0 0.052833,-0.3092261 0.093234,-0.5951438 -0.809582,-0.279702 -1.4389115,-0.046617 -1.86001852,0.2144382 -0.57649654,0.3527354 -0.85309077,0.8950466 -0.77694967,1.6315955 0.08546452,0.853091 1.19028709,1.392294 2.12728899,0.848429 0.010877,-0.0047 0.015539,-0.0093 0.024862,-0.01088 L 2.0781669,11.03825 H 2.7074965 L 3.103741,10.160297 H 3.7998883 L 3.9521705,11.03825 H 4.9777446 L 5.4998551,9.3988855 5.9287315,11.03825 H 6.3296378 L 7.0180117,9.2232948 7.2899442,11.049128 h 0.6013597 l -0.2191,-2.9430875 z"
         id="path902"
         style="fill:#e50000;fill-opacity:1;stroke-width:0.015539" />
      <polyline
         fill="#393c9f"
         points="508.5,194.4 616.6,194.4 623.1,154 555.5,154 560.8,120.3 619.7,120.3 626.1,79.8 566.7,79.8   571.8,46.3 639.5,46.3 645.9,5.8 538.6,5.8 508.5,194.4 "
         id="polyline904"
         transform="matrix(0.015539,0,0,0.015539,-0.01027459,8.0298994)"
         style="fill:#e50000;fill-opacity:1" />
      <polyline
         fill="#393c9f"
         points="1043.8,65.1 1019.6,3.6 975.2,3.6 1021,103.1 1006.8,192.2 1045.7,192.2 1057.5,113.4 1127.4,3.6   1082,3.6 1043.8,65.1 "
         id="polyline906"
         transform="matrix(0.015539,0,0,0.015539,-0.01027459,8.0298994)"
         style="fill:#e50000;fill-opacity:1" />
      <path
         fill="#393c9f"
         d="m 14.789067,9.8557321 c -0.161606,0.4848169 -0.553189,0.7676269 -0.871739,0.6231139 -0.316995,-0.141405 -0.445969,-0.652638 -0.282809,-1.1405626 0.163159,-0.4894786 0.553188,-0.7660728 0.870184,-0.6246679 0.318549,0.1429588 0.447523,0.654192 0.284364,1.1421166 M 14.554428,8.1324568 c -0.668177,-0.1538361 -1.362771,0.3775978 -1.550793,1.1871798 -0.184914,0.8111354 0.203562,1.5927474 0.870184,1.7481374 0.668177,0.152283 1.361217,-0.379151 1.550793,-1.1887333 0.184914,-0.811136 -0.205115,-1.5927478 -0.870184,-1.7465839 z"
         id="path908"
         style="fill:#e50000;fill-opacity:1;stroke-width:0.015539" />
      <path
         fill="#393c9f"
         d="m 11.819563,9.3040975 c -0.33098,0 -0.416445,0 -0.416445,0 l 0.09168,-0.543865 c 0,0 0.01243,0 0.391583,0 0.425769,0 0.33875,0.543865 -0.06682,0.543865 M 11.74653,10.48817 c -0.332535,0 -0.531434,0 -0.531434,0 l 0.09323,-0.584267 c 0,0 0.125866,0 0.503464,0 0.480155,0 0.46617,0.584267 -0.06526,0.584267 z m 0.352735,-2.3479437 c -0.324765,-0.00466 -1.128131,0 -1.128131,0 h 0.0062 l -0.46617,2.9104547 c 0,0 0.964972,0 1.356555,0 0.559403,0 1.375202,-0.822013 0.630883,-1.4932977 0.761411,-0.7909352 0.0062,-1.4078336 -0.399353,-1.417157 z"
         id="path910"
         style="fill:#e50000;fill-opacity:1;stroke-width:0.015539" />
      <path
         fill="#ff0000"
         d="m 0.36090483,13.62889 c -0.10189368,0 -0.18754592,-0.0318 -0.25678576,-0.09523 C 0.03470828,13.468698 2.8788e-6,13.391252 2.8788e-6,13.301155 V 12.123052 H 1.6564591 v 0.372015 H 0.51596786 c -0.0295765,0 -0.0553919,0.0097 -0.077446,0.02889 -0.0191478,0.01915 -0.0288927,0.04206 -0.0288927,0.06856 0,0.02804 0.009745,0.05163 0.0288927,0.07078 0.0206865,0.01778 0.0463308,0.0265 0.077446,0.0265 H 1.6564591 v 0.372185 H 0.51596786 c -0.0295765,0 -0.0553919,0.0096 -0.077446,0.02872 -0.0191478,0.01915 -0.0288927,0.04206 -0.0288927,0.06856 0,0.02804 0.009745,0.0518 0.0288927,0.07095 0.0206865,0.01778 0.0463308,0.0265 0.077446,0.0265 H 1.6564591 v 0.372014 H 0.36090483 Z"
         id="path1211"
         style="fill:#e50000;fill-opacity:1;stroke-width:0.170962" />
      <path
         fill="#ff0000"
         d="m 1.871188,13.62889 v -1.505838 h 1.2955542 c 0.100355,0 0.1851525,0.03248 0.2545633,0.09728 0.070949,0.06514 0.1063387,0.141899 0.1063387,0.230457 V 13.62889 H 3.1180179 v -1.036375 c 0,-0.0265 -0.010429,-0.04941 -0.031115,-0.06856 -0.022054,-0.01915 -0.047186,-0.02889 -0.075223,-0.02889 H 2.387153 c -0.029577,0 -0.055392,0.0097 -0.077446,0.02889 -0.019148,0.01915 -0.028893,0.04206 -0.028893,0.06856 v 1.036375 z"
         id="path1213"
         style="fill:#e50000;fill-opacity:1;stroke-width:0.170962" />
      <path
         fill="#ff0000"
         d="m 4.3668994,13.62889 v -1.036375 c 0,-0.0265 -0.011113,-0.04941 -0.033167,-0.06856 -0.020687,-0.01915 -0.045818,-0.02889 -0.075224,-0.02889 H 3.7425441 V 12.12305 h 1.6564561 v 0.372015 H 4.8830353 c -0.031115,0 -0.05693,0.0097 -0.077617,0.02889 -0.020687,0.01915 -0.030944,0.04206 -0.030944,0.06856 v 1.036375 z"
         id="path1215"
         style="fill:#e50000;fill-opacity:1;stroke-width:0.170962" />
      <path
         fill="#ff0000"
         d="m 5.9746311,13.62889 c -0.1018936,0 -0.1875458,-0.0318 -0.2567857,-0.09523 -0.069411,-0.06497 -0.1041162,-0.142412 -0.1041162,-0.232509 v -1.178103 h 1.656456 v 0.372015 h -1.140491 c -0.029577,0 -0.055392,0.0097 -0.077446,0.02889 -0.019148,0.01915 -0.028893,0.04206 -0.028893,0.06856 0,0.02804 0.00974,0.05163 0.028893,0.07078 0.020686,0.01778 0.046331,0.0265 0.077446,0.0265 h 1.140491 v 0.372185 h -1.140491 c -0.029577,0 -0.055392,0.0096 -0.077446,0.02872 -0.019148,0.01915 -0.028893,0.04206 -0.028893,0.06856 0,0.02804 0.00974,0.0518 0.028893,0.07095 0.020686,0.01778 0.046331,0.0265 0.077446,0.0265 h 1.140491 v 0.372014 H 5.9746311 Z"
         id="path1217"
         style="fill:#e50000;fill-opacity:1;stroke-width:0.170962" />
      <path
         fill="#ff0000"
         d="m 7.4849143,13.62889 v -1.505838 h 1.2955545 c 0.100355,0 0.1851524,0.03248 0.254563,0.09728 0.07095,0.06514 0.1063389,0.141899 0.1063389,0.230457 v 0.292346 c -0.00598,0.08411 -0.039834,0.128393 -0.1018942,0.132838 0.06206,0.0058 0.096081,0.05009 0.1018942,0.132667 v 0.620081 H 8.7317441 v -0.469463 c 0,-0.0265 -0.010429,-0.04941 -0.031115,-0.06856 -0.022054,-0.01915 -0.047186,-0.02872 -0.075223,-0.02872 H 8.0008792 c -0.029577,0 -0.055391,0.0096 -0.077446,0.02872 -0.019148,0.01915 -0.028893,0.04206 -0.028893,0.06856 v 0.469463 H 7.4849143 Z m 1.1404915,-0.938926 c 0.029405,0 0.054537,-0.0087 0.075223,-0.0265 0.020687,-0.01915 0.031115,-0.04274 0.031115,-0.07078 0,-0.0265 -0.010429,-0.04941 -0.031115,-0.06856 -0.022054,-0.01915 -0.047186,-0.02889 -0.075223,-0.02889 H 8.0008792 c -0.029577,0 -0.055391,0.0097 -0.077446,0.02889 -0.019148,0.01915 -0.028893,0.04206 -0.028893,0.06856 0,0.02804 0.00974,0.05163 0.028893,0.07078 0.020687,0.01778 0.04633,0.0265 0.077446,0.0265 z"
         id="path1219"
         style="fill:#e50000;fill-opacity:1;stroke-width:0.170962" />
      <path
         fill="#ff0000"
         d="m 9.9806257,13.62889 v -1.036375 c 0,-0.0265 -0.011113,-0.04941 -0.033167,-0.06856 -0.020686,-0.01915 -0.045818,-0.02889 -0.075223,-0.02889 H 9.3562707 V 12.12305 h 1.6564553 v 0.372015 h -0.515964 c -0.03112,0 -0.05693,0.0097 -0.07762,0.02889 -0.02069,0.01915 -0.03094,0.04206 -0.03094,0.06856 v 1.036375 z"
         id="path1221"
         style="fill:#e50000;fill-opacity:1;stroke-width:0.170962" />
      <path
         fill="#ff0000"
         d="m 11.227455,13.62889 v -1.178103 c 0,-0.08993 0.03471,-0.166859 0.104117,-0.230457 0.07078,-0.0648 0.15643,-0.09728 0.256785,-0.09728 h 0.934481 c 0.100356,0 0.185154,0.03248 0.254564,0.09728 0.07095,0.06514 0.106339,0.141899 0.106339,0.230457 v 1.178103 h -0.409627 v -0.566741 h -0.837032 v 0.566741 z m 1.246659,-0.938926 v -0.09728 c 0,-0.0265 -0.01043,-0.04941 -0.03111,-0.06856 -0.02205,-0.01915 -0.04719,-0.02889 -0.07522,-0.02889 H 11.74325 c -0.02958,0 -0.05539,0.0097 -0.07745,0.02889 -0.01915,0.01915 -0.02889,0.04206 -0.02889,0.06856 v 0.09728 z"
         id="path1223"
         style="fill:#e50000;fill-opacity:1;stroke-width:0.170962" />
      <path
         fill="#ff0000"
         d="m 13.098641,13.62889 v -1.505838 h 0.409626 v 1.505838 z"
         id="path1225"
         style="fill:#e50000;fill-opacity:1;stroke-width:0.170962" />
      <path
         fill="#ff0000"
         d="m 13.723167,13.62889 v -1.505838 h 1.295383 c 0.100355,0 0.185324,0.03248 0.254734,0.09728 0.07095,0.06514 0.106339,0.141899 0.106339,0.230457 v 1.178103 h -0.409626 v -1.036375 c 0,-0.0265 -0.01043,-0.04941 -0.03094,-0.06856 -0.02223,-0.01915 -0.04719,-0.02889 -0.07522,-0.02889 h -0.624526 c -0.02958,0 -0.05539,0.0097 -0.07762,0.02889 -0.01915,0.01915 -0.02872,0.04206 -0.02872,0.06856 v 1.036375 z"
         id="path1227"
         style="fill:#e50000;fill-opacity:1;stroke-width:0.170962" />
      <path
         fill="#ff0000"
         d="m 15.594352,13.62889 v -1.505838 h 1.919909 c 0.09899,0 0.183102,0.03248 0.252512,0.09728 0.07232,0.06514 0.10839,0.141899 0.10839,0.230457 v 1.178103 h -0.409626 v -1.036375 c 0,-0.0265 -0.01111,-0.04941 -0.03317,-0.06856 -0.02069,-0.01915 -0.04582,-0.02889 -0.07522,-0.02889 h -0.309955 c -0.03111,0 -0.05693,0.0097 -0.07745,0.02889 -0.02069,0.01915 -0.03112,0.04206 -0.03112,0.06856 v 1.036375 h -0.409626 v -1.036375 c 0,-0.0265 -0.01026,-0.04941 -0.03094,-0.06856 -0.02205,-0.01915 -0.04719,-0.02889 -0.07522,-0.02889 h -0.312519 c -0.02958,0 -0.05539,0.0097 -0.07762,0.02889 -0.01915,0.01915 -0.02872,0.04206 -0.02872,0.06856 v 1.036375 z"
         id="path1229"
         style="fill:#e50000;fill-opacity:1;stroke-width:0.170962" />
      <path
         fill="#ff0000"
         d="m 18.448914,13.62889 c -0.101894,0 -0.187546,-0.0318 -0.256786,-0.09523 -0.06941,-0.06497 -0.104116,-0.142412 -0.104116,-0.232509 v -1.178103 h 1.656456 v 0.372015 h -1.140491 c -0.02958,0 -0.05539,0.0097 -0.07762,0.02889 -0.01915,0.01915 -0.02872,0.04206 -0.02872,0.06856 0,0.02804 0.0096,0.05163 0.02872,0.07078 0.02069,0.01778 0.0465,0.0265 0.07762,0.0265 h 1.140491 v 0.372185 h -1.140491 c -0.02958,0 -0.05539,0.0096 -0.07762,0.02872 -0.01915,0.01915 -0.02872,0.04206 -0.02872,0.06856 0,0.02804 0.0096,0.0518 0.02872,0.07095 0.02069,0.01778 0.0465,0.0265 0.07762,0.0265 h 1.140491 v 0.372014 h -1.295554 z"
         id="path1231"
         style="fill:#e50000;fill-opacity:1;stroke-width:0.170962" />
      <path
         fill="#ff0000"
         d="m 19.959026,13.62889 v -1.505838 h 1.295554 c 0.100355,0 0.185324,0.03248 0.254563,0.09728 0.07095,0.06514 0.106339,0.141899 0.106339,0.230457 v 1.178103 h -0.409626 v -1.036375 c 0,-0.0265 -0.01043,-0.04941 -0.03111,-0.06856 -0.02206,-0.01915 -0.04702,-0.02889 -0.07505,-0.02889 H 20.47517 c -0.02958,0 -0.05522,0.0097 -0.07762,0.02889 -0.01898,0.01915 -0.02872,0.04206 -0.02872,0.06856 v 1.036375 z"
         id="path1233"
         style="fill:#e50000;fill-opacity:1;stroke-width:0.170962" />
      <path
         fill="#ff0000"
         d="m 22.454908,13.62889 v -1.036375 c 0,-0.0265 -0.01111,-0.04941 -0.03317,-0.06856 -0.02069,-0.01915 -0.04582,-0.02889 -0.07522,-0.02889 H 21.830382 V 12.12305 h 1.656456 v 0.372015 h -0.515965 c -0.03111,0 -0.05693,0.0097 -0.07762,0.02889 -0.02051,0.01915 -0.03094,0.04206 -0.03094,0.06856 v 1.036375 z"
         id="path1235"
         style="fill:#e50000;fill-opacity:1;stroke-width:0.170962" />
      <path
         fill="#ff0000"
         d="m 24.268479,13.62889 v -0.372014 h 1.14032 c 0.02975,0 0.05471,-0.0089 0.07539,-0.0265 0.02069,-0.01915 0.03112,-0.04291 0.03112,-0.07095 0,-0.0265 -0.01043,-0.04941 -0.03112,-0.06856 -0.02205,-0.01915 -0.04736,-0.02872 -0.07539,-0.02872 h -0.779418 c -0.101894,0 -0.187546,-0.0318 -0.256786,-0.0954 -0.06941,-0.06497 -0.104116,-0.142412 -0.104116,-0.232338 v -0.283456 c 0,-0.08993 0.03471,-0.166859 0.104116,-0.230457 0.07078,-0.0648 0.15626,-0.09728 0.256786,-0.09728 h 1.295554 v 0.372015 h -1.140662 c -0.02941,0 -0.05539,0.0097 -0.07745,0.02889 -0.01898,0.01915 -0.02872,0.04206 -0.02872,0.06856 0,0.02804 0.0097,0.05163 0.02872,0.07078 0.02069,0.01778 0.04633,0.0265 0.07745,0.0265 h 0.77976 c 0.100185,0 0.184982,0.03248 0.254393,0.09745 0.07078,0.06496 0.106509,0.141727 0.106509,0.230457 v 0.283285 c 0,0.09164 -0.03573,0.169082 -0.106509,0.232509 -0.07215,0.06343 -0.157286,0.09523 -0.254393,0.09523 z"
         id="path1237"
         style="fill:#e50000;fill-opacity:1;stroke-width:0.170962" />
      <path
         fill="#ff0000"
         d="m 26.76419,13.62889 v -0.566741 h -0.263453 c -0.101894,0 -0.187717,-0.0318 -0.257128,-0.0954 -0.06907,-0.06497 -0.103774,-0.142412 -0.103774,-0.232338 V 12.12322 h 0.409626 v 0.469463 c 0,0.02804 0.0094,0.05163 0.02872,0.07078 0.02069,0.01778 0.04633,0.0265 0.07745,0.0265 h 0.624355 c 0.02975,0 0.05471,-0.0087 0.0754,-0.0265 0.02034,-0.01915 0.03077,-0.04274 0.03077,-0.07078 V 12.12322 h 0.409626 v 0.611191 c 0,0.09147 -0.03539,0.168911 -0.106168,0.232338 -0.07249,0.0636 -0.157285,0.0954 -0.254733,0.0954 h -0.263454 v 0.566741 z"
         id="path1239"
         style="fill:#e50000;fill-opacity:1;stroke-width:0.170962" />
      <path
         fill="#ff0000"
         d="m 28.01102,13.62889 v -0.372014 h 1.14032 c 0.02975,0 0.05471,-0.0089 0.0754,-0.0265 0.02034,-0.01915 0.03077,-0.04291 0.03077,-0.07095 0,-0.0265 -0.01043,-0.04941 -0.03077,-0.06856 -0.0224,-0.01915 -0.04736,-0.02872 -0.0754,-0.02872 h -0.779418 c -0.101893,0 -0.187717,-0.0318 -0.257127,-0.0954 -0.06907,-0.06497 -0.103775,-0.142412 -0.103775,-0.232338 v -0.283456 c 0,-0.08993 0.03471,-0.166859 0.103775,-0.230457 0.07112,-0.0648 0.156601,-0.09728 0.257127,-0.09728 h 1.295212 v 0.372015 h -1.14032 c -0.02975,0 -0.05539,0.0097 -0.07745,0.02889 -0.01932,0.01915 -0.02872,0.04206 -0.02872,0.06856 0,0.02804 0.0094,0.05163 0.02872,0.07078 0.02069,0.01778 0.04633,0.0265 0.07745,0.0265 h 0.779418 c 0.100526,0 0.185324,0.03248 0.254735,0.09745 0.07078,0.06496 0.106167,0.141727 0.106167,0.230457 v 0.283285 c 0,0.09164 -0.03539,0.169082 -0.106167,0.232509 -0.07249,0.06343 -0.157286,0.09523 -0.254735,0.09523 z"
         id="path1241"
         style="fill:#e50000;fill-opacity:1;stroke-width:0.170962" />
      <path
         fill="#ff0000"
         d="m 30.506561,13.62889 v -1.036375 c 0,-0.0265 -0.01094,-0.04941 -0.03334,-0.06856 -0.02034,-0.01915 -0.04582,-0.02889 -0.07505,-0.02889 H 29.882205 V 12.12305 h 1.656286 v 0.372015 h -0.515965 c -0.03112,0 -0.05676,0.0097 -0.07745,0.02889 -0.02069,0.01915 -0.03111,0.04206 -0.03111,0.06856 v 1.036375 z"
         id="path1243"
         style="fill:#e50000;fill-opacity:1;stroke-width:0.170962" />
      <path
         fill="#ff0000"
         d="m 32.114463,13.62889 c -0.101893,0 -0.187717,-0.0318 -0.257127,-0.09523 -0.06907,-0.06497 -0.103775,-0.142412 -0.103775,-0.232509 v -1.178103 h 1.656285 v 0.372015 h -1.14032 c -0.02975,0 -0.05539,0.0097 -0.07744,0.02889 -0.01932,0.01915 -0.02872,0.04206 -0.02872,0.06856 0,0.02804 0.0094,0.05163 0.02872,0.07078 0.02069,0.01778 0.04633,0.0265 0.07744,0.0265 h 1.14032 v 0.372185 h -1.14032 c -0.02975,0 -0.05539,0.0096 -0.07744,0.02872 -0.01932,0.01915 -0.02872,0.04206 -0.02872,0.06856 0,0.02804 0.0094,0.0518 0.02872,0.07095 0.02069,0.01778 0.04633,0.0265 0.07744,0.0265 h 1.14032 v 0.372014 h -1.295383 z"
         id="path1245"
         style="fill:#e50000;fill-opacity:1;stroke-width:0.170962" />
      <path
         fill="#ff0000"
         d="m 33.624746,13.62889 v -1.505838 h 1.91991 c 0.09882,0 0.18293,0.03248 0.252512,0.09728 0.07215,0.06514 0.108561,0.141899 0.108561,0.230457 v 1.178103 h -0.409626 v -1.036375 c 0,-0.0265 -0.01128,-0.04941 -0.03334,-0.06856 -0.02069,-0.01915 -0.04582,-0.02889 -0.07505,-0.02889 h -0.310127 c -0.03111,0 -0.05676,0.0097 -0.07745,0.02889 -0.02069,0.01915 -0.03111,0.04206 -0.03111,0.06856 v 1.036375 H 34.5594 v -1.036375 c 0,-0.0265 -0.01043,-0.04941 -0.03077,-0.06856 -0.0224,-0.01915 -0.04736,-0.02889 -0.07539,-0.02889 h -0.312177 c -0.02975,0 -0.05539,0.0097 -0.07745,0.02889 -0.01932,0.01915 -0.02872,0.04206 -0.02872,0.06856 v 1.036375 z"
         id="path1247"
         style="fill:#e50000;fill-opacity:1;stroke-width:0.170962" />
    </g>
  </g>
</svg>
